<svg xmlns="http://www.w3.org/2000/svg" xmlns:xlink="http://www.w3.org/1999/xlink" viewBox="0 0 2534.67 1277.4"><defs><style>.cls-1,.cls-8{fill:#6458ee;}.cls-2{fill:#c3bef9;}.cls-3{fill:#9e5c46;}.cls-4{fill:#9e5c45;}.cls-5{clip-path:url(#clip-path);}.cls-6{fill:#f2f1fe;}.cls-7{clip-path:url(#clip-path-2);}.cls-8{opacity:0.42;}.cls-9{fill:#89503d;}.cls-10{clip-path:url(#clip-path-3);}.cls-11{fill:#8a4f3d;}.cls-12{fill:#231f20;}.cls-13{fill:#ecc18f;}.cls-14,.cls-20{fill:#fff;}.cls-15{fill:#352f31;}.cls-16{clip-path:url(#clip-path-4);}.cls-17{fill:#e0a870;}.cls-18{clip-path:url(#clip-path-5);}.cls-19{clip-path:url(#clip-path-6);}.cls-20{opacity:0.54;}</style><clipPath id="clip-path"><ellipse class="cls-1" cx="1267.34" cy="1234.22" rx="1267.34" ry="43.19"/></clipPath><clipPath id="clip-path-2"><path class="cls-2" d="M807.83,1135.75s8.44-102.25-88.27-120S373.07,830,275.9,854c-40.91,10.11-3.06,125.58-27.77,187.34-20.82,52.05-127.38,151.4-50.06,172.27H819.4Z"/></clipPath><clipPath id="clip-path-3"><path class="cls-3" d="M775.34,1028.28c0,89-89.24,128.06-189.75,128.06s-174.23-39.09-174.23-128.06S501.86,830,602.37,830,775.34,939.3,775.34,1028.28Z"/></clipPath><clipPath id="clip-path-4"><path class="cls-2" d="M846,1212.74s26-254.46,48.32-282S1267.08,843.18,1402.39,830c560.8-54.62,1010.9,368.8,910.3,381.35-32.27,4-212.74,1.39-212.74,1.39Z"/></clipPath><clipPath id="clip-path-5"><path class="cls-4" d="M631.77,1174.77,862.4,1071.38,846,1212.74S672,1244.21,638.34,1242.66,631.77,1174.77,631.77,1174.77Z"/></clipPath><clipPath id="clip-path-6"><path class="cls-2" d="M737.68,918.36s-105.91-28.32-169.37-81C504.58,784.38,724.24,689.14,795,699s104.74,220.57,24.39,352.23L775.34,855.32S780.75,902.36,737.68,918.36Z"/></clipPath></defs><g id="Layer_2" data-name="Layer 2"><g id="_404" data-name="404"><ellipse class="cls-1" cx="1267.34" cy="1234.22" rx="1267.34" ry="43.19"/><g class="cls-5"><ellipse class="cls-1" cx="1301.3" cy="1207.28" rx="1178.75" ry="50.23"/></g><path class="cls-6" d="M2226.15,1213.59c57.6,0,95.19-53.07,95.27-114.26.71-521.8-119-1059.89-852.31-1093.89C611.79-34.31,290.89,132.11,192.84,894c-21.79,169.28-77.15,322.53,264.53,319.55Z"/><path class="cls-2" d="M807.83,1135.75s8.44-102.25-88.27-120S373.07,830,275.9,854c-40.91,10.11-3.06,125.58-27.77,187.34-20.82,52.05-127.38,151.4-50.06,172.27H819.4Z"/><g class="cls-7"><path class="cls-8" d="M416.11,882.71s-72.14,210.65-4.75,282.6S614,1265.41,614,1265.41H819.4V918.36L416.11,882.71"/></g><path class="cls-9" d="M757.23,971.84s150.41-15.22,217.27-39.73-33.43,280.63-33.43,280.63H694.41Z"/><path class="cls-3" d="M775.34,1028.28c0,89-89.24,128.06-189.75,128.06s-174.23-39.09-174.23-128.06S501.86,830,602.37,830,775.34,939.3,775.34,1028.28Z"/><g class="cls-10"><path class="cls-11" d="M737.68,911s18.79,280.23-299.61,194.71h0s27.52,112.31,174.52,79.16,191.2-102.11,190.09-151.08-65-122.79-65-122.79"/></g><path class="cls-3" d="M631.77,833.42a381.58,381.58,0,0,0-89.58-12.3c-8.08-.14-16.35,0-23.91,2.87-1.24.47-2.58,1.16-3,2.42-.62,2.08,1.7,3.79,3.74,4.51a28.23,28.23,0,0,0,9.93,1.62l-32.16,3c-9.09.85-19.17,2.21-25,9.26-1.45,1.77-2.4,4.73-.56,6.11a4.94,4.94,0,0,0,2.8.68l20.89.8a101,101,0,0,0-41.64,18c-1.34,1-2.75,2.15-3.1,3.79-.79,3.7,4,5.89,7.72,6.48,23.26,3.65,47,1.61,70.46-.44,19-1.67,38.11-3.34,56.73-7.6,9.4-2.14,19-5.11,26.24-11.43s11.76-16.74,8.59-25.85"/><path class="cls-12" d="M504.81,1036.51s25.3,16.21,38.74-10.28C543.55,1026.23,530.11,1040.86,504.81,1036.51Z"/><path class="cls-12" d="M651.14,1015.7s17.12,22.18,43.27,4C694.41,1019.68,674,1027.14,651.14,1015.7Z"/><path class="cls-13" d="M644,1002c12.11-13.73,85.68.6,113.25,6.56-.2-38.49-24.05-73.1-70.66-62.62-21.7,4.88-41.57,17.32-62.85,24a30.76,30.76,0,0,0-7.48-5.55q-5.91-3.43-12-6.56c-2-1-4.51-2-6.43-.84-1.66,1-2.08,3.39-1.47,5.25a13.34,13.34,0,0,0,3.32,4.79,150.16,150.16,0,0,0-21-16.43c-.95-.62-2.12-1.25-3.15-.78a2.46,2.46,0,0,0-1.14,1.2c-1.17,2.32-.08,5.12,1.28,7.32a31.6,31.6,0,0,0,9.35,9.67,158.39,158.39,0,0,0-19-10.06c-5.08-2.26-10.43-4.27-16-4.3-1.12,0-2.45.21-2.91,1.23a2.9,2.9,0,0,0,.6,2.66c3.1,4.73,8.28,7.61,13.39,10l1.71.81q6.31,2.91,12.87,5.28c-20.42-1.66-40.32-5.45-60.19-4.81-14.23.45-28.45,3.18-42.84,10.57-28.1,14.45-41,39.36-37.42,67.17,23.1-14.18,89.81-47.54,114.18-31.3,25,16.69-52.42,76.72-77.48,95.24,69.21,59.06,206.61,35.32,261.87-36.54C668.85,1070.68,630.05,1017.73,644,1002Z"/><path class="cls-14" d="M641,1101.56a17.11,17.11,0,0,1,2.57,12.41,5.62,5.62,0,0,1-1.06,2.55,5.23,5.23,0,0,1-4.24,1.55,10.14,10.14,0,0,1-9.33-7.74c-.51-2.36-.5-5.41-2.71-6.36a4,4,0,0,0-2.22-.16c-3.47.61-6.13,3.81-9.64,4.08-4.5.34-7.94-4.2-12.38-5a18,18,0,0,1-3.89-.68c-1.21-.51-2.2-2-1.58-3.14s2-1.19,3.18-1.22a118.21,118.21,0,0,0,20-2.15c3-.59,6-1.42,9-2.07a6.63,6.63,0,0,1,5.47,1.07A23.28,23.28,0,0,1,641,1101.56Z"/><path class="cls-15" d="M619.81,1094c-3,.5-6.13.66-9.18,1l-4.6.31c-.75.08-1.5.13-2.25.16-2.14-5.78-2.65-14.57-2.62-21.93,12.43-1.31,21.84-9.11,21.18-17.78-.67-8.9-11.7-15.33-24.64-14.36s-22.88,9-22.21,17.9c.59,7.81,9.15,13.71,20,14.39,0,7.11.5,15.58,2.41,22-5,.16-9.94.18-14.93,0-6.21-.15-12.41-.51-18.77-1a69,69,0,0,0,18.34,5.39,92.44,92.44,0,0,0,19.17,1.08c3.21-.08,6.4-.52,9.58-.89,1.58-.3,3.17-.57,4.74-.89.78-.17,1.58-.29,2.35-.49l2.33-.64a68.11,68.11,0,0,0,17.65-7.38C632,1092,626,1093.34,619.81,1094Z"/><path class="cls-3" d="M514.1,988.94a58.15,58.15,0,0,0-9.66,1.76c-3.16.87-6.7,2.8-8.31,5.81-1.75,3.26-.46,6.16,3.49,6.23,15.69.29,31.28-2,47-1.52a16.35,16.35,0,0,0,4.64-.27c9.47-2.46-2.57-8.64-6.2-9.48C535.29,989.24,524.4,987.9,514.1,988.94Z"/><path class="cls-3" d="M653.7,972.19a57.21,57.21,0,0,0-9.65,1.77c-3.17.87-6.71,2.79-8.31,5.8-1.75,3.26-.46,6.16,3.49,6.24,15.69.28,31.28-2,47-1.52a16.35,16.35,0,0,0,4.64-.28c9.47-2.46-2.57-8.63-6.21-9.47C674.9,972.49,664,971.16,653.7,972.19Z"/><path class="cls-13" d="M568.31,830q-7.59-1.9-15.25-3.5A147.28,147.28,0,0,0,537.74,824c-1.28-.12-2.55-.2-3.8-.22a14,14,0,0,0-3.53.33,1.83,1.83,0,0,0-1,.48s0,0,0,.07,0,0,0,.18l.08.34a4.1,4.1,0,0,0,1.73,2.23,15.44,15.44,0,0,0,6.64,2.13,39.53,39.53,0,0,0,7.45.23,1.84,1.84,0,0,1,.29,3.66h-.06c-6.81.67-13.67,1.38-20.46,2.3s-13.59,1.92-20.23,3.35a64.41,64.41,0,0,0-9.59,2.71,17.4,17.4,0,0,0-2.08,1,6,6,0,0,0-1.41,1c-.12.06-.21.58-.19.49s0,0,0,0,0,0,0,.06a.84.84,0,0,1,.18.15l.29.18a12.72,12.72,0,0,0,4.17,1,44,44,0,0,0,4.91.24,94,94,0,0,0,10.06-.59h0a2.18,2.18,0,0,1,.86,4.25c-7.19,2.11-14.37,4.4-21.46,6.85a186.85,186.85,0,0,0-20.84,8.23,35.78,35.78,0,0,0-4.71,2.68,9,9,0,0,0-1.81,1.6,1.61,1.61,0,0,0-.33.62c0,.08,0,.12.12.31a3.07,3.07,0,0,0,.81.56c.35.17.82.33,1.22.5l1.26.5c.43.15.87.26,1.3.4l1.31.39,1.35.27c.45.09.9.2,1.35.27l1.37.18a63.14,63.14,0,0,0,22.27-1.71,63.69,63.69,0,0,1-11,2.84,50.8,50.8,0,0,1-11.44.66l-1.44-.1c-.48-.05-1-.13-1.44-.19l-1.45-.2-1.43-.33c-.47-.11-.95-.21-1.42-.33l-1.4-.48c-.48-.17-.92-.28-1.42-.51a5.33,5.33,0,0,1-1.55-1,2.92,2.92,0,0,1-.9-2.22,4,4,0,0,1,.74-2,11.44,11.44,0,0,1,2.28-2.28,38.39,38.39,0,0,1,5-3.17c3.38-1.86,6.86-3.42,10.36-4.93s7-2.9,10.57-4.24c7.12-2.64,14.27-5.09,21.51-7.39l.9,4.24a95.91,95.91,0,0,1-10.59.71,49.58,49.58,0,0,1-5.41-.23,16.71,16.71,0,0,1-5.81-1.5l-.8-.5a10.69,10.69,0,0,1-.81-.7,5.58,5.58,0,0,1-.72-1,4.48,4.48,0,0,1-.53-2.48,4.4,4.4,0,0,1,.2-1.1,5.35,5.35,0,0,1,1-2,9.42,9.42,0,0,1,2.7-2.07,22.5,22.5,0,0,1,2.62-1.2A70.31,70.31,0,0,1,504,834.71c6.86-1.42,13.74-2.39,20.64-3.15s13.77-1.41,20.71-1.8l.24,3.65a43.51,43.51,0,0,1-8.16-.54,18.43,18.43,0,0,1-8-3,7.15,7.15,0,0,1-2.7-4,5.06,5.06,0,0,1-.14-1.41,3,3,0,0,1,.72-1.7,4.41,4.41,0,0,1,2.46-1.29,15.87,15.87,0,0,1,4.25-.21c1.36.08,2.69.23,4,.43a135.86,135.86,0,0,1,15.36,3.54Q560.92,827.37,568.31,830Z"/><path class="cls-2" d="M846,1212.74s26-254.46,48.32-282S1267.08,843.18,1402.39,830c560.8-54.62,1010.9,368.8,910.3,381.35-32.27,4-212.74,1.39-212.74,1.39Z"/><g class="cls-16"><path class="cls-14" d="M1156.46,969.74a17.62,17.62,0,0,0,12.06-5c3-3,5.18-7.81,5-12.06-.2-4.41-1.65-9-5-12.05a17,17,0,0,0-24.12,0c-3,3-5.18,7.81-5,12.05.2,4.41,1.65,9,5,12.06a17.74,17.74,0,0,0,12.06,5Z"/><path class="cls-14" d="M1246.75,1086.88a17.63,17.63,0,0,0,12.06-5c3-3,5.18-7.81,5-12.05-.2-4.41-1.65-9-5-12.06a17.07,17.07,0,0,0-24.12,0c-3,3-5.18,7.81-5,12.06.2,4.41,1.65,9,5,12.05a17.75,17.75,0,0,0,12.06,5Z"/><path class="cls-14" d="M1363.88,899a17.61,17.61,0,0,0,12.06-5,17.3,17.3,0,0,0,5-12.05c-.2-4.41-1.64-9-5-12.06a17.06,17.06,0,0,0-24.11,0c-3,3-5.19,7.81-5,12.06.2,4.41,1.65,9,5,12.05a17.71,17.71,0,0,0,12.05,5Z"/><path class="cls-14" d="M1293.11,982a17.6,17.6,0,0,0,12.06-5c3-3,5.18-7.81,5-12.05-.19-4.41-1.64-9-5-12.06a17.06,17.06,0,0,0-24.11,0c-3,3-5.19,7.81-5,12.06s1.65,9,5,12.05a17.71,17.71,0,0,0,12,5Z"/><path class="cls-14" d="M1237,872.13a17.58,17.58,0,0,0,12-5c3-3,5.19-7.81,5-12.06-.2-4.41-1.65-9-5-12.05a17,17,0,0,0-24.11,0,17.3,17.3,0,0,0-5,12.05c.2,4.41,1.64,9,5,12.06a17.74,17.74,0,0,0,12.06,5Z"/><path class="cls-14" d="M978.32,977.06a17.62,17.62,0,0,0,12.06-5c3-3,5.18-7.81,5-12.06s-1.65-9-5-12a17,17,0,0,0-24.12,0c-3,3-5.18,7.81-5,12,.2,4.41,1.65,9,5,12.06a17.74,17.74,0,0,0,12.06,5Z"/><path class="cls-14" d="M1063.73,1121a17.62,17.62,0,0,0,12.06-5c3-3,5.18-7.81,5-12.06-.2-4.41-1.65-9-5-12.06a17.07,17.07,0,0,0-24.12,0c-3,3-5.18,7.81-5,12.06.2,4.41,1.65,9,5,12.06a17.74,17.74,0,0,0,12.06,5Z"/><path class="cls-14" d="M1056.41,1013.67a17.54,17.54,0,0,0,12-5c3-2.95,5.19-7.8,5-12-.2-4.41-1.65-9-5-12.06a17.06,17.06,0,0,0-24.11,0c-2.95,3-5.18,7.81-5,12.06.2,4.41,1.64,9,5,12a17.7,17.7,0,0,0,12.06,5Z"/><path class="cls-14" d="M917.31,1086.88a17.6,17.6,0,0,0,12.06-5,17.3,17.3,0,0,0,5-12.05c-.19-4.41-1.64-9-5-12.06a17.06,17.06,0,0,0-24.11,0c-3,3-5.19,7.81-5,12.06.2,4.41,1.65,9,5,12.05a17.71,17.71,0,0,0,12,5Z"/><path class="cls-14" d="M941.72,1182.05a17.59,17.59,0,0,0,12-5c3-3,5.19-7.81,5-12-.2-4.41-1.65-9-5-12.06a17.06,17.06,0,0,0-24.11,0,17.32,17.32,0,0,0-5,12.06c.19,4.41,1.64,9,5,12a17.7,17.7,0,0,0,12.06,5Z"/><path class="cls-14" d="M1183.52,1177.4a17.6,17.6,0,0,0,12.06-5,17.32,17.32,0,0,0,5-12.06c-.2-4.41-1.64-9-5-12a17,17,0,0,0-24.11,0c-3,3-5.19,7.81-5,12,.2,4.41,1.65,9,5,12.06a17.7,17.7,0,0,0,12,5Z"/><path class="cls-14" d="M1153.57,1057.6a17.57,17.57,0,0,0,12.06-5c2.95-2.95,5.18-7.8,5-12-.2-4.41-1.64-9-5-12.06a17.06,17.06,0,0,0-24.11,0c-3,3-5.19,7.81-5,12.06.2,4.41,1.65,9,5,12a17.66,17.66,0,0,0,12,5Z"/><path class="cls-14" d="M1433.11,1090.88a17.55,17.55,0,0,0,12.06-5,17.3,17.3,0,0,0,5-12.05c-.19-4.41-1.64-9-5-12.06a17.06,17.06,0,0,0-24.11,0c-3,3-5.19,7.81-5,12.06.2,4.41,1.65,9,5,12.05a17.66,17.66,0,0,0,12,5Z"/><path class="cls-14" d="M1496.34,941.12a17.6,17.6,0,0,0,12.06-5,17.32,17.32,0,0,0,5-12.06c-.19-4.41-1.64-9-5-12.05a17,17,0,0,0-24.11,0c-3,3-5.19,7.81-5,12.05.2,4.41,1.65,9,5,12.06a17.7,17.7,0,0,0,12,5Z"/><path class="cls-14" d="M1376.54,994.37a17.62,17.62,0,0,0,12.06-5c3-3,5.18-7.81,5-12.06-.2-4.41-1.65-9-5-12.06a17.07,17.07,0,0,0-24.12,0c-3,3-5.18,7.81-5,12.06.2,4.41,1.65,9,5,12.06a17.74,17.74,0,0,0,12.06,5Z"/><path class="cls-14" d="M1356.57,1180.73a17.6,17.6,0,0,0,12.06-5,17.32,17.32,0,0,0,5-12.06c-.2-4.41-1.64-9-5-12.06a17.06,17.06,0,0,0-24.11,0c-3,3-5.19,7.81-5,12.06.2,4.41,1.65,9,5,12.06a17.7,17.7,0,0,0,12,5Z"/><path class="cls-14" d="M1602.84,1224a17.58,17.58,0,0,0,12.05-5c3-3,5.19-7.81,5-12.06-.2-4.41-1.65-9-5-12a17,17,0,0,0-24.11,0,17.3,17.3,0,0,0-5,12c.19,4.41,1.64,9,5,12.06a17.74,17.74,0,0,0,12.06,5Z"/><path class="cls-14" d="M1659.41,1044.29a17.59,17.59,0,0,0,12.06-5c3-3,5.18-7.81,5-12-.2-4.41-1.65-9-5-12.06a17.07,17.07,0,0,0-24.12,0c-2.95,3-5.18,7.81-5,12.06.2,4.41,1.65,9,5,12a17.7,17.7,0,0,0,12.06,5Z"/><path class="cls-14" d="M1516.31,1147.45a17.62,17.62,0,0,0,12.06-5c3-3,5.18-7.81,5-12.06-.2-4.41-1.65-9-5-12.05a17,17,0,0,0-24.12,0c-3,3-5.18,7.8-5,12.05.2,4.41,1.65,9,5,12.06a17.74,17.74,0,0,0,12.06,5Z"/><path class="cls-14" d="M1542.93,1037.63a17.59,17.59,0,0,0,12.06-5,17.32,17.32,0,0,0,5-12.06c-.19-4.41-1.64-9-5-12.05a17,17,0,0,0-24.11,0c-3,3-5.19,7.8-5,12.05.2,4.41,1.65,9,5,12.06a17.7,17.7,0,0,0,12,5Z"/><path class="cls-14" d="M1652.75,851.27a17.59,17.59,0,0,0,12.06-5,17.32,17.32,0,0,0,5-12.06c-.19-4.41-1.64-9-5-12.06a17.06,17.06,0,0,0-24.11,0c-3,3-5.19,7.81-5,12.06.2,4.41,1.65,9,5,12.06a17.7,17.7,0,0,0,12,5Z"/><path class="cls-14" d="M1499.67,867.91a17.6,17.6,0,0,0,12.06-5c3-3,5.18-7.81,5-12.06-.2-4.41-1.65-9-5-12.06a17.07,17.07,0,0,0-24.12,0c-2.95,3-5.18,7.81-5,12.06.2,4.41,1.65,9,5,12.06a17.74,17.74,0,0,0,12.06,5Z"/><path class="cls-14" d="M1892.36,1060.93a17.61,17.61,0,0,0,12.06-5c2.95-3,5.18-7.81,5-12-.2-4.41-1.64-9-5-12.06a17.06,17.06,0,0,0-24.11,0c-3,3-5.19,7.81-5,12.06.2,4.41,1.65,9,5,12a17.66,17.66,0,0,0,12,5Z"/><path class="cls-14" d="M1819.15,934.47a17.54,17.54,0,0,0,12-5c3-3,5.19-7.81,5-12.05-.2-4.41-1.65-9-5-12.06a17.06,17.06,0,0,0-24.11,0,17.32,17.32,0,0,0-5,12.06c.2,4.41,1.64,9,5,12.05a17.7,17.7,0,0,0,12.06,5Z"/><path class="cls-14" d="M1652.75,944.45a17.59,17.59,0,0,0,12.06-5,17.32,17.32,0,0,0,5-12.06c-.19-4.41-1.64-9-5-12.06a17.06,17.06,0,0,0-24.11,0c-3,3-5.19,7.81-5,12.06.2,4.41,1.65,9,5,12.06a17.7,17.7,0,0,0,12,5Z"/><path class="cls-14" d="M1769.23,1011a17.59,17.59,0,0,0,12.06-5c3-3,5.18-7.8,5-12-.2-4.41-1.65-9-5-12.06a17.07,17.07,0,0,0-24.12,0c-3,3-5.18,7.81-5,12.06.2,4.41,1.65,9,5,12a17.7,17.7,0,0,0,12.06,5Z"/><path class="cls-14" d="M1785.87,1157.44a17.63,17.63,0,0,0,12.06-5c3-3,5.18-7.81,5-12-.2-4.41-1.65-9-5-12.06a17.07,17.07,0,0,0-24.12,0c-3,3-5.18,7.81-5,12.06s1.65,9,5,12a17.75,17.75,0,0,0,12.06,5Z"/><path class="cls-14" d="M1676.05,1150.78a17.58,17.58,0,0,0,12-5c3-3,5.19-7.81,5-12.06-.2-4.41-1.65-9-5-12.06a17.06,17.06,0,0,0-24.11,0c-3,3-5.18,7.81-5,12.06.2,4.41,1.64,9,5,12.06a17.74,17.74,0,0,0,12.06,5Z"/><path class="cls-14" d="M1925.64,1194a17.62,17.62,0,0,0,12.06-5c3-3,5.18-7.81,5-12.06-.2-4.41-1.65-9-5-12a17,17,0,0,0-24.12,0c-2.95,3-5.18,7.8-5,12,.2,4.41,1.65,9,5,12.06a17.74,17.74,0,0,0,12.06,5Z"/><path class="cls-14" d="M1998.85,1100.86a17.59,17.59,0,0,0,12.06-5,17.32,17.32,0,0,0,5-12.06c-.19-4.41-1.64-9-5-12a17,17,0,0,0-24.11,0c-3,3-5.19,7.8-5,12,.2,4.41,1.65,9,5,12.06a17.7,17.7,0,0,0,12,5Z"/><path class="cls-14" d="M1939,991a17.6,17.6,0,0,0,12.06-5c3-3,5.18-7.81,5-12.06-.2-4.41-1.64-9-5-12a17,17,0,0,0-24.11,0c-3,2.95-5.19,7.8-5,12,.2,4.41,1.65,9,5,12.06a17.7,17.7,0,0,0,12,5Z"/><path class="cls-14" d="M2171.9,1124.16a17.6,17.6,0,0,0,12.06-5,17.3,17.3,0,0,0,5-12.05c-.19-4.41-1.64-9-5-12.06a17.06,17.06,0,0,0-24.11,0c-3,3-5.19,7.81-5,12.06.2,4.41,1.65,9,5,12.05a17.71,17.71,0,0,0,12.05,5Z"/><path class="cls-14" d="M2072.07,1027.65a17.54,17.54,0,0,0,12-5c3-2.95,5.19-7.8,5-12-.2-4.41-1.65-9-5-12.06a17.06,17.06,0,0,0-24.11,0,17.32,17.32,0,0,0-5,12.06c.19,4.41,1.64,9,5,12a17.7,17.7,0,0,0,12.06,5Z"/><path class="cls-14" d="M2068.74,1197.37a17.62,17.62,0,0,0,12.06-5c2.95-3,5.18-7.81,5-12.06-.2-4.41-1.65-9-5-12.06a17.07,17.07,0,0,0-24.12,0c-2.95,3-5.18,7.81-5,12.06.2,4.41,1.65,9,5,12.06a17.74,17.74,0,0,0,12.06,5Z"/><path class="cls-14" d="M2198.53,1197.37a17.58,17.58,0,0,0,12-5c3-3,5.19-7.81,5-12.06-.2-4.41-1.65-9-5-12.06a17.06,17.06,0,0,0-24.11,0,17.32,17.32,0,0,0-5,12.06c.19,4.41,1.64,9,5,12.06a17.74,17.74,0,0,0,12.06,5Z"/><path class="cls-14" d="M1057.06,1204a17.61,17.61,0,0,0,12.06-5c3-3,5.18-7.81,5-12-.19-4.41-1.64-9-5-12.06a17.06,17.06,0,0,0-24.11,0c-3,3-5.19,7.81-5,12.06.2,4.41,1.65,9,5,12a17.71,17.71,0,0,0,12,5Z"/><path class="cls-14" d="M1067.05,931.14a17.58,17.58,0,0,0,12-5c3-3,5.19-7.81,5-12.06-.2-4.41-1.65-9-5-12.06a17.06,17.06,0,0,0-24.11,0,17.32,17.32,0,0,0-5,12.06c.19,4.41,1.64,9,5,12.06a17.74,17.74,0,0,0,12.06,5Z"/><path class="cls-8" d="M965.65,904.79s80.27,225.33,312.14,239,1076.12,32.29,1076.12,32.29v58.11H787.3l75.1-317.49,103.25-11.94"/></g><path class="cls-13" d="M647.74,1196.26a28.76,28.76,0,0,0-25.84-19.42c-27.95-1.58-89.33-2.38-127.9,17.08-51.2,25.84-99.85,69.36-76.81,63s88.33-53.07,117.78-48.64,105.24,7.68,112.15-1.28C649.28,1204.16,649.06,1200.27,647.74,1196.26Z"/><path class="cls-13" d="M647,1203s-120.77-.2-132.39,9.85-78.14,49.13-69.69,52.3,76-27.31,89.75-31.08,119.32,11.39,122.49.12S647,1203,647,1203Z"/><path class="cls-17" d="M535,1208.24s59-7.36,79-4.87C614,1203.37,573.77,1190.66,535,1208.24Z"/><path class="cls-4" d="M631.77,1174.77,862.4,1071.38,846,1212.74S672,1244.21,638.34,1242.66,631.77,1174.77,631.77,1174.77Z"/><g class="cls-18"><path class="cls-11" d="M601.26,1213.63s186.19-14.29,294.08-83.57v104.16L596,1257.52Z"/></g><path class="cls-2" d="M737.68,918.36s-105.91-28.32-169.37-81C504.58,784.38,724.24,689.14,795,699s104.74,220.57,24.39,352.23L775.34,855.32S780.75,902.36,737.68,918.36Z"/><g class="cls-19"><path class="cls-8" d="M672.78,896s96.48-57.13,102.56-95.15,54.14,165.74,41.85,240.57h0l-41.85-127L730,930.71,672.78,896"/><path class="cls-20" d="M580.63,777.81s121,90,189.42,128.6L730,930.71s-168.87-61.79-184.61-101,35.26-51.94,35.26-51.94"/></g><circle class="cls-14" cx="817.83" cy="1067.39" r="26.02"/><path class="cls-1" d="M855,513H624V408.73L855,134.2h110.5V414.64h57.27V513H965.48v85.29H855Zm0-98.36V271l-122,143.6Z"/><path class="cls-1" d="M1062.28,368.27q0-130.11,46.84-182.09t142.72-52q46,0,75.63,11.36t48.25,29.57q18.67,18.21,29.41,38.28t17.28,46.85a437.72,437.72,0,0,1,12.76,106.45q0,124.2-42,181.78t-144.74,57.58q-57.59,0-93.06-18.36t-58.21-53.85q-16.5-25.22-25.68-68.95T1062.28,368.27Zm125.75.31q0,87.15,15.41,119.05t44.66,31.91A46.78,46.78,0,0,0,1281.56,506q14.16-13.54,20.86-42.8t6.69-91.2q0-90.88-15.41-122.17t-46.22-31.28q-31.44,0-45.44,31.9T1188,368.58Z"/><path class="cls-1" d="M1705.35,513h-231V408.73l231-274.53h110.49V414.64h57.28V513h-57.28v85.29H1705.35Zm0-98.36V271l-122,143.6Z"/></g></g></svg>