<svg xmlns="http://www.w3.org/2000/svg" version="1.1" xmlns:xlink="http://www.w3.org/1999/xlink" xmlns:svgjs="http://svgjs.com/svgjs" x="0" y="0" viewBox="0 0 64 64" style="enable-background:new 0 0 512 512" xml:space="preserve" class=""><g><g data-name="24-paintbrush"><path d="M62.775 50.561a4.818 4.818 0 0 0-3.782-2.2l-.921-.048a15.186 15.186 0 0 1-10.626-5.2A15.487 15.487 0 0 1 46.16 41.4l-4.93-7.616-3.878-5.984-2.216-3.423-1.016-1.572a5.877 5.877 0 0 0-4.866-2.69l-3.941-.053a9.384 9.384 0 0 1-7.77-4.3A11.821 11.821 0 0 1 15.664 10a9.388 9.388 0 0 0-6.307-8.37 6.557 6.557 0 0 0-8.69 5.626 9.389 9.389 0 0 0 5.06 9.183 11.82 11.82 0 0 1 4.488 4.073 9.384 9.384 0 0 1 .738 8.845l-1.565 3.619a5.878 5.878 0 0 0 .462 5.54l1.012 1.564v.005L13.3 43.85l3.657 5.65 5.158 7.966a3.037 3.037 0 0 0 2.488 1.39h.057a2.978 2.978 0 0 0 2.444-1.272l.44-.628a2 2 0 0 1 2.346-.715l.169.063a4 4 0 0 0 5.211-2.5l.4-1.243a1.031 1.031 0 0 1 .659-.664 1.053 1.053 0 0 1 .946.149 4.462 4.462 0 0 0 6.095-.837 2.413 2.413 0 0 1 1.754-.916 2.468 2.468 0 0 1 1.91.712l4.853 4.725a8.268 8.268 0 0 0 8.456 1.942 4.682 4.682 0 0 0 2.938-2.918 4.775 4.775 0 0 0-.506-4.193ZM35.149 37.1l.175 1.566a.441.441 0 0 1-.165.4.454.454 0 0 1-.429.078l-2.771-.923a2.455 2.455 0 0 0-3.229 2.3.444.444 0 0 1-.2.368.437.437 0 0 1-.414.052l-.729-.269a2.453 2.453 0 0 0-3.223 2.917l.385 1.493a.436.436 0 0 1-.135.45.443.443 0 0 1-.461.09l-1.752-.645a2.446 2.446 0 0 0-2.641.628l-1.623 1.737-2.412-3.742 20.912-13.536 2.417 3.736-2.06.7a2.441 2.441 0 0 0-1.645 2.6Zm-22.062 2.737L34 26.3l1.351 2.086-20.913 13.537Zm-1.863-6.066 1.565-3.62a11.381 11.381 0 0 0-.889-10.726 13.835 13.835 0 0 0-5.25-4.763 7.4 7.4 0 0 1-3.991-7.233A4.549 4.549 0 0 1 8.7 3.519a7.4 7.4 0 0 1 4.97 6.6 13.82 13.82 0 0 0 2.194 6.738 11.387 11.387 0 0 0 9.423 5.208l3.942.053a3.876 3.876 0 0 1 3.212 1.777l.472.727L12 38.158l-.472-.728a3.881 3.881 0 0 1-.304-3.659ZM61.4 54.1a2.692 2.692 0 0 1-1.691 1.68 6.273 6.273 0 0 1-6.42-1.48l-4.855-4.73A4.55 4.55 0 0 0 45 48.3a4.438 4.438 0 0 0-3.192 1.67 2.466 2.466 0 0 1-3.367.451 3.042 3.042 0 0 0-4.669 1.522l-.4 1.244a1.979 1.979 0 0 1-1.029 1.179 2 2 0 0 1-1.581.066l-.168-.063a4 4 0 0 0-4.684 1.442l-.439.628a.973.973 0 0 1-.807.419h-.019a1.018 1.018 0 0 1-.846-.477l-4.734-7.312 1.963-2.1a.455.455 0 0 1 .489-.116l1.753.645a2.454 2.454 0 0 0 3.222-2.917l-.392-1.5a.454.454 0 0 1 .6-.539l.729.269a2.454 2.454 0 0 0 3.3-2.27.454.454 0 0 1 .6-.424l2.772.923a2.454 2.454 0 0 0 3.213-2.6l-.174-1.566a.455.455 0 0 1 .3-.479l2.533-.867 4.507 6.962a17.5 17.5 0 0 0 1.455 1.935 17.194 17.194 0 0 0 12.033 5.892l.921.048A2.82 2.82 0 0 1 61.4 54.1Z" fill="currentColor" data-original="#000000" class=""/><path d="M8.443 5.524a3.243 3.243 0 1 0 2.044 1.41 3.219 3.219 0 0 0-2.044-1.41Zm0 4.214a1.21 1.21 0 0 1-.936.172 1.243 1.243 0 1 1 1.3-1.89 1.243 1.243 0 0 1-.366 1.718ZM31 19a1 1 0 0 0 1-1V4.634a.317.317 0 0 1 .507-.254l.978.734a2.33 2.33 0 0 0 3.03-.215.3.3 0 0 1 .262-.089.31.31 0 0 1 .233.151l1.265 2.107a2.316 2.316 0 0 0 3.624.447l.735-.735a.34.34 0 0 1 .246-.092.315.315 0 0 1 .231.127L44 8a2.315 2.315 0 0 0 3.864-.24l2.012-3.52a.309.309 0 0 1 .255-.159.324.324 0 0 1 .269.119l.887 1.182a2.321 2.321 0 0 0 1.69.921 2.269 2.269 0 0 0 1.8-.673l.679-.679a.3.3 0 0 1 .346-.069.3.3 0 0 1 .2.293V45a1 1 0 0 0 2 0V5.179a2.316 2.316 0 0 0-3.955-1.638l-.679.679a.326.326 0 0 1-.246.092.315.315 0 0 1-.231-.127L52 3a2.315 2.315 0 0 0-3.864.24l-2.012 3.52a.309.309 0 0 1-.255.159.314.314 0 0 1-.269-.119l-.887-1.182a2.321 2.321 0 0 0-1.69-.921 2.3 2.3 0 0 0-1.8.673l-.735.735a.3.3 0 0 1-.262.089.31.31 0 0 1-.233-.151l-1.268-2.111a2.316 2.316 0 0 0-3.625-.447.316.316 0 0 1-.415.03l-.979-.735A2.318 2.318 0 0 0 30 4.634V18a1 1 0 0 0 1 1Z" fill="currentColor" data-original="#000000" class=""/><path d="M52 16a1 1 0 0 0-2 0v15a1 1 0 0 0 2 0ZM51 34a1 1 0 0 0-1 1v4a1 1 0 0 0 2 0v-4a1 1 0 0 0-1-1ZM46 12a1 1 0 0 0-2 0v12a1 1 0 0 0 2 0ZM45 27a1 1 0 0 0-1 1v2a1 1 0 0 0 2 0v-2a1 1 0 0 0-1-1ZM57 60a1 1 0 0 0-1 1 .854.854 0 0 1-1.236.764l-1.88-.94a4.23 4.23 0 0 0-3.767 0 2.973 2.973 0 0 1-3.436-.557 4.865 4.865 0 0 0-5.624-.913l-1.5.747a2.88 2.88 0 0 1-2.877-.179 2.664 2.664 0 0 0-3.353.332l-.211.211A.657.657 0 0 1 31 60a1 1 0 0 0-2 0 2.656 2.656 0 0 0 4.535 1.879l.211-.211a.655.655 0 0 1 .829-.082 4.884 4.884 0 0 0 4.882.3l1.494-.747a2.866 2.866 0 0 1 3.316.538 4.973 4.973 0 0 0 5.744.932 2.22 2.22 0 0 1 1.978 0l1.88.94A2.855 2.855 0 0 0 58 61a1 1 0 0 0-1-1Z" fill="currentColor" data-original="#000000" class=""/></g></g></svg>